<?xml version="1.0" standalone="no"?>
<!DOCTYPE svg PUBLIC "-//W3C//DTD SVG 20010904//EN"
 "http://www.w3.org/TR/2001/REC-SVG-20010904/DTD/svg10.dtd">
<svg version="1.0" xmlns="http://www.w3.org/2000/svg"
 width="43.000000pt" height="43.000000pt" viewBox="0 0 43.000000 43.000000"
 preserveAspectRatio="xMidYMid meet">

<g transform="translate(0.000000,43.000000) scale(0.100000,-0.100000)"
fill="#000000" stroke="none">
<path d="M280 225 c0 -30 2 -55 5 -55 10 0 55 24 55 29 0 9 -50 81 -55 81 -3
0 -5 -25 -5 -55z"/>
<path d="M226 164 c-4 -15 -2 -32 3 -37 8 -8 11 0 11 26 0 44 -5 47 -14 11z"/>
<path d="M120 153 c0 -5 4 -14 9 -22 7 -11 11 -9 20 8 10 18 9 21 -9 21 -11 0
-20 -3 -20 -7z"/>
<path d="M315 136 c-40 -18 -61 -52 -44 -72 10 -13 17 -10 45 17 18 17 37 28
43 25 15 -10 14 6 -1 27 -11 14 -17 14 -43 3z"/>
</g>
</svg>
